<svg xmlns="http://www.w3.org/2000/svg" height="800" width="1200" viewBox="-112.5 -93.75 975 562.5"><path fill="#424242" d="M391.114 88.673l13.055 123.987v-37.707h12.266c3.515 0 5.738 1.415 6.551 4.258l.644 7.17c1.61-3.44 4.753-6.413 9.457-8.927 4.705-2.515 10.222-3.792 16.506-3.792 7.007 0 12.712 1.696 17.092 5.044 4.377 3.34 6.892 7.324 7.634 12.025-.056-2.401 1.115-4.724 3.45-7.033a31.857 31.857 0 017.878-5.686c2.924-1.507 5.999-2.646 9.264-3.333a48.111 48.111 0 019.953-1.017c5.355 0 10.141.749 14.381 2.217 4.248 1.475 7.888 3.645 10.843 6.483 2.954 2.835 5.209 6.251 6.746 10.31 1.538 4.066 2.271 8.637 2.271 13.697v53.859H517.92v-53.859c0-6.046-1.482-10.541-4.436-13.505-2.955-2.975-7.186-4.487-12.714-4.487-2.49 0-4.851.405-7.088 1.154-2.247.748-4.241 1.865-5.966 3.333-1.719 1.467-3.077 3.271-4.086 5.502-1.01 2.233-1.531 4.915-1.531 8.003v53.859h-21.177v-53.859c0-6.214-1.415-10.762-4.19-13.644-2.77-2.889-6.772-4.348-12.023-4.348-3.727 0-7.244.902-10.54 2.682-3.297 1.773-6.201 4.059-8.766 6.894v62.275h-16.212l8.278 78.737 315.139-54.264L750 104.632zm211.638 84.989c6.013 0 11.597.894 16.798 2.637 5.192 1.744 9.709 4.219 13.495 7.491 3.784 3.28 6.747 7.314 8.87 12.077 2.117 4.763 3.15 10.136 3.15 16.105 0 2.538-.406 4.396-1.277 5.549-.871 1.155-2.507 1.712-4.876 1.712h-62.369c.098 3.929.904 7.751 2.361 11.428 1.464 3.669 3.402 6.696 5.869 9.066 2.457 2.377 5.419 4.105 8.814 5.273 3.394 1.17 7.236 1.759 11.524 1.759 4.069 0 7.53-.375 10.395-1.154 2.873-.781 5.338-1.62 7.438-2.546 2.109-.926 4.036-1.834 5.722-2.775 1.677-.947 3.287-1.436 4.825-1.436 2.142 0 3.73.65 4.828 1.986l5.225 6.299c-2.506 2.898-5.275 5.197-8.376 6.896a53.673 53.673 0 01-9.855 4.158c-3.459 1.068-7.017 1.841-10.639 2.362a77.664 77.664 0 01-10.986.786c-6.984 0-13.437-1.002-19.315-3.011-5.876-2.004-10.922-4.953-15.218-8.837-4.299-3.882-7.651-8.637-10.004-14.247-2.352-5.61-3.5-12.009-3.5-19.292 0-5.918 1.033-11.444 3.159-16.564 2.123-5.114 5.248-9.595 9.309-13.416 4.055-3.822 8.995-6.833 14.879-9.019 5.876-2.194 12.476-3.287 19.754-3.287zm.342 13.836c-7.553 0-13.479 1.873-17.833 5.595-4.355 3.721-7.066 8.355-8.13 13.926h48.524c0-2.086-.482-4.418-1.523-7.033-1.05-2.614-2.546-4.86-4.484-6.71-1.938-1.843-4.33-3.248-7.097-4.258-2.767-1.001-5.917-1.52-9.457-1.52"/><path stroke-width="2.94" stroke="#FF7749" d="M87.963 28.986v140.949m14.21-100.499v100.843m14.218-96.563v96.663m14.212-124.631v124.34m14.21-121.566v121.581m14.218-144.076v143.884m14.21-131.065v131.181M187.453 0v169.675m14.219-155.273v155.396m14.21-150.475v150.528m14.212-99.659v100.125m14.218-118.263v118.094m14.21-110.03v110.13m14.21-115.634v115.558m14.22-94.499v94.728m14.21-130.768v130.402m14.21-137.893v137.824m14.22-122.246v122.391m14.21-124.164v124.148" fill="none"/><path stroke-width="2.94" stroke="#424242" d="M87.571 356.984v-87.635m14.252 62.486v-62.693m14.26 60.034v-60.095m14.252 77.485v-77.309m14.251 75.581V269.25m14.258 89.567v-89.452m14.252 81.488v-81.558M187.356 375V269.518m14.251 96.532v-96.609m14.26 93.55v-93.589m14.25 61.96V269.12m14.251 73.517v-73.419m14.26 68.411v-68.471m14.252 71.888v-71.841m14.26 58.748v-58.887m14.249 81.298v-81.077m14.252 85.732v-85.685m14.26 76.001v-76.093m14.251 77.193v-77.178" fill="none"/><path fill="#FF7749" d="M0 177.899h12.75q1.934 0 3.165.909 1.231.908 1.671 2.147l22.598 53.841q1.055 3.056 1.846 5.946.792 2.89 1.495 5.781.704-2.891 1.495-5.781.791-2.89 1.935-5.946l22.861-53.841q.528-1.322 1.759-2.189 1.231-.867 2.902-.867h12.222l-36.315 83.653H36.315zm133.908-1.321q8.001 0 14.816 2.519 6.814 2.518 11.782 7.267 4.968 4.748 7.782 11.726 2.814 6.978 2.814 15.896 0 3.469-.791 4.625-.792 1.156-2.99 1.156h-59.529q.176 7.928 2.287 13.791 2.11 5.863 5.803 9.785 3.693 3.923 8.793 5.864 5.1 1.94 11.431 1.94 5.891 0 10.156-1.28 4.264-1.28 7.342-2.766 3.077-1.487 5.144-2.767 2.066-1.28 3.561-1.28 1.934 0 2.99 1.404l4.396 5.368q-2.902 3.303-6.946 5.739-4.045 2.436-8.662 4.005-4.616 1.569-9.54 2.354-4.924.784-9.76.784-9.233 0-17.015-2.931-7.781-2.932-13.453-8.589-5.671-5.656-8.837-13.997-3.165-8.34-3.165-19.158 0-8.754 2.857-16.351 2.858-7.597 8.222-13.171 5.364-5.574 13.101-8.754 7.738-3.179 17.411-3.179zm.351 10.818q-11.343 0-17.849 6.152-6.507 6.152-8.09 17.053h48.713q0-5.12-1.539-9.373-1.538-4.253-4.484-7.35-2.946-3.096-7.166-4.789-4.221-1.693-9.585-1.693zm56.583 74.156v-83.653h8.969q2.55 0 3.517.909.967.908 1.319 3.138l.967 12.717q4.221-8.588 10.42-13.419 6.199-4.831 15.08-4.831 2.814 0 5.408.578 2.594.578 4.616 1.817l-1.143 10.983q-.528 2.064-2.638 2.064-1.231 0-3.605-.495-2.374-.496-5.364-.496-4.22 0-7.562 1.198-3.341 1.197-5.935 3.468-2.594 2.271-4.616 5.574-2.023 3.303-3.693 7.597v52.851zm114.133-69.862q-1.055 1.817-3.253 1.817-1.319 0-2.99-.909-1.671-.908-4.089-2.023-2.418-1.115-5.759-2.064-3.341-.95-7.914-.95-3.957 0-7.122.95-3.166.949-5.408 2.601-2.242 1.652-3.429 3.84-1.187 2.188-1.187 4.748 0 3.221 1.978 5.368 1.979 2.147 5.232 3.716 3.254 1.569 7.386 2.766 4.133 1.198 8.485 2.56 4.353 1.363 8.486 3.014 4.132 1.652 7.386 4.129 3.253 2.478 5.232 6.07 1.978 3.592 1.978 8.63 0 5.78-2.198 10.694-2.198 4.913-6.507 8.505-4.309 3.592-10.552 5.657-6.243 2.064-14.42 2.064-9.321 0-16.883-2.849-7.562-2.849-12.837-7.308l3.693-5.615q.703-1.074 1.67-1.652.968-.578 2.462-.578 1.583 0 3.342 1.156 1.758 1.156 4.264 2.56 2.506 1.404 6.111 2.56 3.606 1.156 8.969 1.156 4.573 0 8.002-1.115 3.429-1.114 5.715-3.014 2.287-1.899 3.386-4.376 1.099-2.478 1.099-5.286 0-3.468-1.979-5.739-1.978-2.271-5.232-3.881-3.253-1.61-7.43-2.808-4.176-1.197-8.529-2.518-4.352-1.322-8.529-3.015-4.177-1.692-7.43-4.252-3.253-2.56-5.232-6.318-1.978-3.757-1.978-9.125 0-4.789 2.11-9.207 2.11-4.418 6.155-7.763 4.045-3.344 9.936-5.326 5.892-1.982 13.453-1.982 8.793 0 15.784 2.601 6.99 2.602 12.09 7.143zm82.083 69.862q-2.287 0-3.518-.702-1.231-.702-1.934-2.766l-1.759-7.845q-3.517 2.973-6.902 5.326-3.386 2.354-7.035 3.964-3.649 1.61-7.825 2.477-4.177.867-9.277.867-5.188 0-9.76-1.362-4.573-1.363-7.958-4.088t-5.364-6.895q-1.978-4.17-1.978-9.868 0-4.955 2.902-9.538 2.901-4.583 9.408-8.134t16.971-5.822q10.463-2.271 25.675-2.602v-6.523q0-9.745-4.484-14.741-4.485-4.996-13.102-4.996-5.803 0-9.716 1.363-3.913 1.362-6.771 3.055-2.857 1.693-4.924 3.056-2.066 1.362-4.088 1.362-1.583 0-2.726-.784-1.143-.785-1.935-1.941l-2.813-4.707q7.386-6.689 15.915-9.992 8.529-3.303 18.905-3.303 7.474 0 13.277 2.312 5.804 2.312 9.76 6.441 3.957 4.129 5.98 9.992 2.022 5.863 2.022 12.883v53.511zm-33.59-9.001q4.133 0 7.562-.785 3.43-.784 6.463-2.229 3.034-1.445 5.804-3.551 2.769-2.106 5.407-4.748v-17.342q-10.815.33-18.421 1.61t-12.398 3.345q-4.792 2.064-6.947 4.872-2.154 2.808-2.154 6.276 0 3.303 1.143 5.698 1.143 2.395 3.122 3.922 1.978 1.528 4.66 2.23 2.682.702 5.759.702z"/></svg>